<svg width="12" height="12" viewBox="0 0 12 12" fill="none" xmlns="http://www.w3.org/2000/svg">
<path d="M2.26634 0.866586C2.14693 0.866586 2.02739 0.912072 1.93639 1.00331L1.00306 1.93664C0.820594 2.11911 0.820594 2.41453 1.00306 2.59653L4.40645 5.99992L1.00306 9.4033C0.820594 9.58577 0.820594 9.8812 1.00306 10.0632L1.93639 10.9965C2.11886 11.179 2.41429 11.179 2.59629 10.9965L5.99968 7.59315L9.40306 10.9965C9.58506 11.179 9.88096 11.179 10.063 10.9965L10.9963 10.0632C11.1788 9.88073 11.1788 9.5853 10.9963 9.4033L7.5929 5.99992L10.9963 2.59653C11.1788 2.41453 11.1788 2.11864 10.9963 1.93664L10.063 1.00331C9.88049 0.820838 9.58506 0.820838 9.40306 1.00331L5.99968 4.40669L2.59629 1.00331C2.50506 0.912072 2.38575 0.866586 2.26634 0.866586Z" fill="white"/>
</svg>
