<svg width="22" height="22" viewBox="0 0 22 22" fill="none" xmlns="http://www.w3.org/2000/svg">
<rect width="22" height="22" rx="11" fill="white"/>
<g clip-path="url(#clip0_37_502)">
<path d="M6.91743 12.5299L6.40691 14.4358L4.54095 14.4752C3.9833 13.4409 3.66699 12.2575 3.66699 11C3.66699 9.78393 3.96273 8.63718 4.48695 7.62744H4.48735L6.14858 7.932L6.8763 9.58326C6.72399 10.0273 6.64097 10.504 6.64097 11C6.64103 11.5383 6.73854 12.0541 6.91743 12.5299Z" fill="#FBBB00"/>
<path d="M18.2061 9.62988C18.2903 10.0735 18.3342 10.5316 18.3342 10.9998C18.3342 11.5249 18.279 12.037 18.1739 12.531C17.8169 14.212 16.8841 15.6799 15.5919 16.7186L15.5915 16.7182L13.4991 16.6115L13.203 14.7628C14.0604 14.26 14.7305 13.473 15.0834 12.531H11.1621V9.62988H15.1406H18.2061Z" fill="#518EF8"/>
<path d="M15.591 16.7182L15.5914 16.7186C14.3347 17.7288 12.7382 18.3332 11.0004 18.3332C8.20768 18.3332 5.77963 16.7722 4.54102 14.4751L6.9175 12.5298C7.5368 14.1826 9.1312 15.3592 11.0004 15.3592C11.8038 15.3592 12.5565 15.142 13.2024 14.7628L15.591 16.7182Z" fill="#28B446"/>
<path d="M15.6805 5.35477L13.3049 7.29971C12.6364 6.88188 11.8462 6.64051 10.9997 6.64051C9.0882 6.64051 7.46398 7.87105 6.87571 9.58313L4.48673 7.62731H4.48633C5.70681 5.27419 8.16548 3.6665 10.9997 3.6665C12.779 3.6665 14.4105 4.30032 15.6805 5.35477Z" fill="#F14336"/>
</g>
<defs>
<clipPath id="clip0_37_502">
<rect x="3.66699" y="3.6665" width="14.6667" height="14.6667" rx="7.33333" fill="white"/>
</clipPath>
</defs>
</svg>
